<?xml version="1.0" encoding="UTF-8"?>
<svg version="1.1" xmlns="http://www.w3.org/2000/svg" width="1320" height="1320">
<path d="M0 0 C1.6076863 0.00222273 3.21537266 0.00439923 4.82305908 0.00653076 C27.10559246 0.04745719 49.28935081 0.22867674 71.42578125 3.03387451 C73.80121286 3.33482493 76.17788502 3.62463653 78.5546875 3.91455078 C114.4507271 8.35325148 149.88548451 15.19146625 184.625 25.3125 C185.25392151 25.49492249 185.88284302 25.67734497 186.53082275 25.86529541 C225.30428504 37.13669336 262.45828613 52.3948393 298.625 70.3125 C299.64319824 70.81620117 300.66139648 71.31990234 301.71044922 71.83886719 C317.81330424 79.86337542 333.1974773 88.84461993 348.45898438 98.34228516 C351.29464525 100.10691989 354.13802518 101.85815628 356.984375 103.60546875 C367.90202508 110.35120045 378.32659216 117.65980933 388.625 125.3125 C389.70322021 126.11034912 389.70322021 126.11034912 390.80322266 126.92431641 C398.87053725 132.89935988 406.84711454 138.96294075 414.625 145.3125 C415.46933594 145.99441406 416.31367187 146.67632812 417.18359375 147.37890625 C429.45404922 157.33418145 441.25316437 167.69475771 452.73828125 178.54345703 C454.5931989 180.28268236 456.46485027 182.00158386 458.34375 183.71484375 C467.23357253 191.8466194 475.55033857 200.40265586 483.72021484 209.25488281 C485.53862202 211.21919141 487.36988404 213.17041313 489.20703125 215.1171875 C494.83414482 221.09357576 500.26200287 227.14136424 505.39453125 233.5546875 C507.4045113 236.03988175 509.46657094 238.4706629 511.55371094 240.89111328 C518.30783112 248.74391003 524.50383994 256.96126906 530.625 265.3125 C531.14320312 266.01503906 531.66140625 266.71757812 532.1953125 267.44140625 C583.92422021 337.64492386 620.81139926 416.36167296 656.4375 578 C656.58668884 579.16601746 656.58668884 579.16601746 656.7388916 580.35559082 C660.07350371 606.78355206 661.00256422 633.08605955 660.9375 659.6875 C660.93527727 661.2951863 660.93310077 662.90287266 660.93096924 664.51055908 C660.89004281 686.79309246 660.70882326 708.97685081 657.90362549 731.11328125 C657.60267507 733.48871286 657.31286347 735.86538502 657.02294922 738.2421875 C652.58424852 774.1382271 645.74603375 809.57298451 635.625 844.3125 C635.44257751 844.94142151 635.26015503 845.57034302 635.07220459 846.21832275 C623.80080664 884.99178504 608.5426607 922.14578613 590.625 958.3125 C589.86944824 959.83979736 589.86944824 959.83979736 589.09863281 961.39794922 C581.07412458 977.50080424 572.09288007 992.8849773 562.59521484 1008.14648438 C560.83058011 1010.98214525 559.07934372 1013.82552518 557.33203125 1016.671875 C550.58629955 1027.58952508 543.27769067 1038.01409216 535.625 1048.3125 C534.82715088 1049.39072021 534.82715088 1049.39072021 534.01318359 1050.49072266 C528.03814012 1058.55803725 521.97455925 1066.53461454 515.625 1074.3125 C514.94308594 1075.15683594 514.26117187 1076.00117187 513.55859375 1076.87109375 C503.60331855 1089.14154922 493.24274229 1100.94066437 482.39404297 1112.42578125 C480.65481764 1114.2806989 478.93591614 1116.15235027 477.22265625 1118.03125 C469.0908806 1126.92107253 460.53484414 1135.23783857 451.68261719 1143.40771484 C449.71830859 1145.22612202 447.76708687 1147.05738404 445.8203125 1148.89453125 C439.84392424 1154.52164482 433.79613576 1159.94950287 427.3828125 1165.08203125 C424.89761825 1167.0920113 422.4668371 1169.15407094 420.04638672 1171.24121094 C412.19358997 1177.99533112 403.97623094 1184.19133994 395.625 1190.3125 C394.92246094 1190.83070312 394.21992187 1191.34890625 393.49609375 1191.8828125 C323.29257614 1243.61172021 244.57582704 1280.49889926 82.9375 1316.125 C81.77148254 1316.27418884 81.77148254 1316.27418884 80.58190918 1316.4263916 C54.15394794 1319.76100371 27.85144045 1320.69006422 1.25 1320.625 C-0.3576863 1320.62277727 -1.96537266 1320.62060077 -3.57305908 1320.61846924 C-25.85559246 1320.57754281 -48.03935081 1320.39632326 -70.17578125 1317.59112549 C-72.55121286 1317.29017507 -74.92788502 1317.00036347 -77.3046875 1316.71044922 C-113.2007271 1312.27174852 -148.63548451 1305.43353375 -183.375 1295.3125 C-184.00392151 1295.13007751 -184.63284302 1294.94765503 -185.28082275 1294.75970459 C-224.05428504 1283.48830664 -261.20828613 1268.2301607 -297.375 1250.3125 C-298.90229736 1249.55694824 -298.90229736 1249.55694824 -300.46044922 1248.78613281 C-316.56330424 1240.76162458 -331.9474773 1231.78038007 -347.20898438 1222.28271484 C-350.04464525 1220.51808011 -352.88802518 1218.76684372 -355.734375 1217.01953125 C-366.65290117 1210.27325824 -377.07059423 1202.95823322 -387.375 1195.3125 C-388.74864077 1194.30200564 -390.12233751 1193.29158737 -391.49609375 1192.28125 C-400.40433051 1185.69563352 -409.04313791 1178.8143865 -417.59423828 1171.77294922 C-419.18892725 1170.46510312 -420.79491954 1169.1710679 -422.40234375 1167.87890625 C-428.3461487 1163.09486812 -433.99686083 1158.06998832 -439.5859375 1152.8828125 C-441.9200955 1150.73172571 -444.28246617 1148.63324342 -446.6875 1146.5625 C-449.80868325 1143.85961966 -452.70949242 1140.99910274 -455.6015625 1138.0546875 C-457.42300415 1136.26534173 -459.31214279 1134.59961468 -461.25 1132.9375 C-467.89201954 1127.19478678 -473.91811712 1120.93773292 -479.62890625 1114.27734375 C-481.47115675 1112.20429676 -483.39901662 1110.25814198 -485.375 1108.3125 C-489.25525687 1104.47667355 -492.830071 1100.45734006 -496.375 1096.3125 C-497.28072194 1095.27037415 -498.18701803 1094.22874715 -499.09375 1093.1875 C-505.58412169 1085.70941678 -511.81690114 1078.07514458 -517.87402344 1070.24316406 C-519.50103263 1068.15038776 -521.14399567 1066.07079511 -522.7890625 1063.9921875 C-529.88331228 1055.00095477 -536.64708239 1045.87615288 -543.00976562 1036.35302734 C-544.41942567 1034.24609983 -545.84173802 1032.14811544 -547.265625 1030.05078125 C-594.63684055 960.00376408 -628.04160701 881.65153448 -655.1875 742.625 C-655.33668884 741.45898254 -655.33668884 741.45898254 -655.4888916 740.26940918 C-658.82350371 713.84144794 -659.75256422 687.53894045 -659.6875 660.9375 C-659.68527727 659.3298137 -659.68310077 657.72212734 -659.68096924 656.11444092 C-659.64004281 633.83190754 -659.45882326 611.64814919 -656.65362549 589.51171875 C-656.35267507 587.13628714 -656.06286347 584.75961498 -655.77294922 582.3828125 C-651.33424852 546.4867729 -644.49603375 511.05201549 -634.375 476.3125 C-634.19257751 475.68357849 -634.01015503 475.05465698 -633.82220459 474.40667725 C-622.55080664 435.63321496 -607.2926607 398.47921387 -589.375 362.3125 C-588.87129883 361.29430176 -588.36759766 360.27610352 -587.84863281 359.22705078 C-579.82412458 343.12419576 -570.84288007 327.7400227 -561.34521484 312.47851562 C-559.58058011 309.64285475 -557.82934372 306.79947482 -556.08203125 303.953125 C-549.33629955 293.03547492 -542.02769067 282.61090784 -534.375 272.3125 C-533.84310059 271.59368652 -533.31120117 270.87487305 -532.76318359 270.13427734 C-526.78814012 262.06696275 -520.72455925 254.09038546 -514.375 246.3125 C-513.69308594 245.46816406 -513.01117187 244.62382812 -512.30859375 243.75390625 C-502.35331855 231.48345078 -491.99274229 219.68433563 -481.14404297 208.19921875 C-479.40481764 206.3443011 -477.68591614 204.47264973 -475.97265625 202.59375 C-467.8408806 193.70392747 -459.28484414 185.38716143 -450.43261719 177.21728516 C-448.46830859 175.39887798 -446.51708687 173.56761596 -444.5703125 171.73046875 C-438.59392424 166.10335518 -432.54613576 160.67549713 -426.1328125 155.54296875 C-423.64761825 153.5329887 -421.2168371 151.47092906 -418.79638672 149.38378906 C-410.94358997 142.62966888 -402.72623094 136.43366006 -394.375 130.3125 C-393.67246094 129.79429687 -392.96992188 129.27609375 -392.24609375 128.7421875 C-322.04257614 77.01327979 -243.32582704 40.12610074 -81.6875 4.5 C-80.52148254 4.35081116 -80.52148254 4.35081116 -79.33190918 4.1986084 C-52.90394794 0.86399629 -26.60144045 -0.06506422 0 0 Z " fill="#580496" transform="translate(659.375,-0.3125)"/>
<path d="M0 0 C1.71275535 1.27358732 3.37667033 2.61423077 5 4 C6.52463949 4.5497368 8.06902381 5.04648681 9.625 5.5 C13.51577789 6.66915001 14.59030538 7.75215073 17 11 C18.92532559 11.45685692 20.85274731 11.90811078 22.79296875 12.296875 C26.79112195 13.57062292 29.83347643 16.32192953 33 19 C31.54809387 25.13027032 28.02714047 30.23739067 24 35 C22.515 35.495 22.515 35.495 21 36 C20.28954528 37.64847697 19.62759842 39.31823235 19 41 C17.625 42.9296875 17.625 42.9296875 16 44.875 C12.19965056 49.59760997 8.89966593 54.57925142 5.640625 59.68310547 C2.5179782 64.48921145 -1.03575242 68.29420605 -5.375 72.0625 C-7.82445174 74.80355314 -9.34702236 77.2456068 -11.125 80.4375 C-13.84487271 85.28005598 -16.86477358 89.48057663 -20.375 93.75 C-25.84140551 100.44882468 -29.90091971 107.6048966 -33.99755859 115.19140625 C-35.91546686 118.65167522 -38.0829539 121.94801302 -40.234375 125.265625 C-42.30057757 128.46549624 -44.31271812 131.69584858 -46.3125 134.9375 C-46.96863281 135.99839844 -47.62476563 137.05929687 -48.30078125 138.15234375 C-49.14189453 139.56193359 -49.14189453 139.56193359 -50 141 C-50.42667969 141.66128906 -50.85335938 142.32257813 -51.29296875 143.00390625 C-52.39190668 146.10643267 -51.96644204 147.85237848 -51 151 C-49.28571627 153.69483903 -47.26513704 156.07915274 -45.1875 158.5 C-44.60726074 159.19416016 -44.02702148 159.88832031 -43.42919922 160.60351562 C-41.63183844 162.74650396 -39.81790084 164.87442402 -38 167 C-36.90472937 168.29148136 -35.8096682 169.58314038 -34.71484375 170.875 C-30.65245491 175.65028893 -26.55235182 180.38737962 -22.375 185.0625 C-19.47044924 188.36184406 -16.79126252 191.82022088 -14.125 195.3125 C-8.28540486 202.95911809 -2.40993106 210.51510767 4.24243164 217.47924805 C11.41108186 225.00778192 17.38707506 233.1566691 23.34570312 241.66064453 C24.99242808 243.98929249 26.66919021 246.2925862 28.359375 248.58984375 C49.1864876 276.92966938 49.1864876 276.92966938 49 287 C41.47758521 291.59120914 35.35757447 292.71448571 26.625 292.6875 C24.51294118 292.70410022 22.40092553 292.72851336 20.2890625 292.76171875 C18.90775146 292.7611145 18.90775146 292.7611145 17.49853516 292.76049805 C14.8567461 293.01373188 13.32117727 293.78069384 11 295 C6.53814399 294.71520068 3.61494562 293.58520099 0 291 C-1.69621795 288.81513648 -3.23479669 286.67586429 -4.75 284.375 C-7.72015759 280.0285362 -10.64433143 276.12323465 -14.5 272.5 C-18.62868943 268.58099882 -21.82854863 264.23819368 -25.05419922 259.58300781 C-29.61103342 253.03420111 -34.60923873 246.86857272 -39.63964844 240.68066406 C-41.53023003 238.3449204 -43.38798981 235.98354624 -45.25 233.625 C-47.63032721 230.62520239 -50.10666606 227.8304173 -52.75 225.0625 C-56.67399913 220.72544833 -59.63478059 215.96233484 -62.6875 211 C-70.9025638 197.66574532 -80.28006742 185.42416172 -91 174 C-92.67228668 172.19268396 -94.33900184 170.3801961 -96 168.5625 C-96.7425 167.75941406 -97.485 166.95632813 -98.25 166.12890625 C-100 164 -100 164 -101 161 C-103.49759982 159.30117552 -103.49759982 159.30117552 -106 158 C-106.49306641 158.85658203 -106.49306641 158.85658203 -106.99609375 159.73046875 C-109.88912744 164.66195436 -112.94247933 169.39789714 -116.25 174.0625 C-119.6826465 178.92330678 -122.77823511 183.90813025 -125.75 189.0625 C-129.58594191 195.70876765 -133.62473172 202.19446233 -137.8125 208.625 C-138.35165039 209.45394775 -138.89080078 210.28289551 -139.44628906 211.13696289 C-141.79953284 214.73000533 -144.18129279 218.28351056 -146.70703125 221.7578125 C-148.67166867 224.53574957 -150.3128475 227.23661706 -151.875 230.25 C-153.810476 233.87231402 -155.82424741 237.3694596 -158.0625 240.8125 C-161.06242559 245.43185444 -163.85348567 250.14903839 -166.62231445 254.91040039 C-172.294409 264.64955796 -178.11287507 274.07224546 -185 283 C-185.65871094 283.85464844 -186.31742188 284.70929688 -186.99609375 285.58984375 C-191.22640106 290.76628431 -191.22640106 290.76628431 -194.5859375 291.78125 C-197 292 -197 292 -198.8125 290.6875 C-200 289 -200 289 -200 287 C-201.65 287 -203.3 287 -205 287 C-205.226875 287.804375 -205.45375 288.60875 -205.6875 289.4375 C-207 292 -207 292 -209.4375 292.9375 C-212 293 -212 293 -215 291 C-216.36125 290.690625 -216.36125 290.690625 -217.75 290.375 C-225.84361551 286.95077805 -230.74333729 277.30918853 -235.66015625 270.3046875 C-237.37934946 267.8592187 -239.15466533 265.47740963 -241 263.125 C-245.31543235 257.42765953 -248.92690556 251.22948206 -252.67236328 245.15087891 C-255.24828396 240.97767899 -257.84973731 236.82034806 -260.45556641 232.66577148 C-262.28879089 229.74282506 -264.1114718 226.81642632 -265.90234375 223.8671875 C-268.61262037 219.45453758 -271.34357574 215.48308591 -274.875 211.6875 C-278.99998632 207.20826867 -282.16222068 202.29177026 -285.37890625 197.14453125 C-287.91086092 193.10158747 -290.55893757 189.14146245 -293.2199707 185.18261719 C-295.04644325 182.46142237 -296.8562683 179.72972249 -298.6640625 176.99609375 C-300.62851763 174.03048995 -302.62604234 171.10462408 -304.7109375 168.22265625 C-309.2282573 161.68443022 -311.05621788 157.14771323 -309.796875 149.171875 C-307.4419593 139.79838701 -303.00638332 132.12167257 -297.80615234 124.08740234 C-294.26491106 118.58217781 -291.38718558 112.93700497 -288.66796875 106.98828125 C-286.84424472 103.72095366 -284.67416971 101.59155308 -282 99 C-280.94647157 96.69034152 -279.94280904 94.3570226 -279 92 C-278.29037109 91.05833984 -278.29037109 91.05833984 -277.56640625 90.09765625 C-275.87142191 87.82781437 -274.75551158 85.56595279 -273.5625 83 C-271.75983633 79.29723137 -270.02178928 76.82033666 -267 74 C-265.9641321 72.01833966 -264.96887581 70.01526169 -264 68 C-262.3969316 65.29211418 -260.70560602 62.64422568 -259 60 C-258.401875 59.071875 -257.80375 58.14375 -257.1875 57.1875 C-255.26527221 54.38653951 -253.27268213 51.66595231 -251.25 48.9375 C-246.2364397 42.08470063 -241.84315624 34.86735987 -237.5625 27.5390625 C-235.11401898 23.42255378 -232.79478115 20.99587986 -229 18 C-227.98440599 16.00787329 -226.98210371 14.0088485 -226 12 C-225.01 11.67 -224.02 11.34 -223 11 C-221.77030122 7.48809191 -221.77030122 7.48809191 -221 4 C-213.32221651 3.33236665 -206.4070488 5.81932519 -200.375 10.625 C-198 13 -198 13 -198 15 C-197.09241943 15.3880481 -197.09241943 15.3880481 -196.16650391 15.78393555 C-193.7912946 17.1171469 -192.84755595 18.21931168 -191.3359375 20.45703125 C-190.85866211 21.15103027 -190.38138672 21.8450293 -189.88964844 22.56005859 C-189.38981445 23.30336426 -188.88998047 24.04666992 -188.375 24.8125 C-187.30693438 26.36482959 -186.23659366 27.91559611 -185.1640625 29.46484375 C-184.63200195 30.23425293 -184.09994141 31.00366211 -183.55175781 31.79638672 C-181.37167488 34.89226912 -179.08040723 37.8914384 -176.75 40.875 C-171.12888408 48.10600353 -165.60751293 55.35297931 -160.75 63.125 C-153.09237828 75.33204777 -144.42090512 86.87736155 -135.734375 98.36328125 C-133.44291981 101.39733766 -131.21133116 104.4693777 -129 107.5625 C-126.2848664 111.33983022 -123.42417466 114.95368975 -120.47338867 118.54638672 C-107.22382611 134.74052138 -107.22382611 134.74052138 -106.87109375 141.453125 C-107.125 143.6875 -107.125 143.6875 -108 147 C-107.58041016 145.85724609 -107.58041016 145.85724609 -107.15234375 144.69140625 C-105.0809657 139.35644221 -103.0894813 134.76770931 -99.375 130.375 C-96.78477273 127.29667851 -95.50488981 124.97189772 -94.5625 121.0625 C-93.25610997 115.93081222 -90.76486719 113.0320457 -87.3515625 109.06640625 C-84.42525398 105.25053883 -82.19588008 101.20183277 -79.875 97 C-75.11652886 88.48567873 -69.56233539 80.99769541 -63.48046875 73.39453125 C-55.64684337 63.59222344 -48.68716082 53.20877318 -42.0625 42.5625 C-13.91675784 -2.58133411 -13.91675784 -2.58133411 0 0 Z " fill="#FDFDFE" transform="translate(701,531)"/>
<path d="M0 0 C7.95415282 0.23296682 14.99229663 4.35660942 20.46484375 9.84375 C25.20645184 14.93121656 28.99577927 20.63504405 32.87695312 26.38110352 C36.06047802 31.07505594 39.43970114 35.5091869 43.0390625 39.89453125 C48.42803773 46.71126287 53.14577929 54.07189185 57.9375 61.3125 C65.88533227 73.28136994 74.46528717 84.82120508 83 96.375 C83.75023437 97.39335938 84.50046875 98.41171875 85.2734375 99.4609375 C88.44342372 103.7295471 91.63948046 107.95848132 95.015625 112.06640625 C110.48688239 130.90865619 110.48688239 130.90865619 110 139.375 C109.63019987 143.42122502 109.63019987 143.42122502 112 146.375 C112.73665193 153.87964155 108.98929455 159.38113456 105 165.375 C104.50242187 166.23609375 104.00484375 167.0971875 103.4921875 167.984375 C102 170.375 102 170.375 100.53125 171.8046875 C98.30745102 174.08521604 97.02775678 176.70990181 95.5 179.5 C89.66874479 189.95107304 83.16358966 200.02668918 76.1875 209.75 C73.98565413 212.84602272 72.08679523 215.95364631 70.3125 219.3125 C67.14940016 225.28724414 63.52651633 230.92371996 59.88500977 236.61303711 C55.85172312 242.94717121 52.02988993 249.38716211 48.25 255.875 C43.86164077 263.36026867 39.50081895 270.64086251 34 277.375 C33.59652344 277.87660645 33.19304687 278.37821289 32.77734375 278.89501953 C31.47824913 280.49222729 30.15206251 282.06164069 28.8125 283.625 C27.61560547 285.02492188 27.61560547 285.02492188 26.39453125 286.453125 C24 288.375 24 288.375 21.32421875 288.359375 C19 287.375 19 287.375 17 284.375 C14.94074861 283.65117533 14.94074861 283.65117533 13 283.375 C12.62875 284.550625 12.62875 284.550625 12.25 285.75 C11 288.375 11 288.375 9.1875 289.875 C7 290.375 7 290.375 4.5625 289.0625 C3.716875 288.505625 2.87125 287.94875 2 287.375 C1.20851563 287.271875 0.41703125 287.16875 -0.3984375 287.0625 C-3.92084377 286.1316539 -4.96515907 284.54360419 -7.1875 281.6875 C-7.96222656 280.69492187 -8.73695313 279.70234375 -9.53515625 278.6796875 C-13.33795974 273.62045114 -17.03140827 268.48357144 -20.65527344 263.29492188 C-21.64221465 261.88582498 -22.63605681 260.48155498 -23.63378906 259.08007812 C-27.81348576 253.18177897 -31.7203272 247.16113457 -35.5 241 C-36.35452759 239.61929321 -36.35452759 239.61929321 -37.22631836 238.21069336 C-41.87206727 230.67505344 -41.87206727 230.67505344 -43.97265625 226.83984375 C-47.51894972 220.36589768 -51.66908888 215.12712642 -56.53637695 209.63256836 C-60.4701878 205.13809613 -63.58997672 200.4837373 -66.609375 195.3203125 C-69.84622153 189.85996975 -73.46165767 184.64220429 -77 179.375 C-78.39358417 177.27497512 -79.78682209 175.17472042 -81.1796875 173.07421875 C-83.35642065 169.80057864 -85.56093237 166.56664166 -87.8828125 163.39453125 C-91.70973436 157.92083291 -93.57970275 154.45036012 -92.75 147.6875 C-90.68093499 138.16223121 -86.43927905 130.0288559 -81.0625 122 C-76.92911524 115.68039806 -73.65456344 109.73383905 -70.99609375 102.6640625 C-69.62860056 99.52150951 -67.46807818 97.72555065 -65 95.375 C-62.51452947 91.45983403 -60.26894093 87.41823122 -58 83.375 C-56.45696893 80.73451902 -54.86274161 78.17013239 -53.16015625 75.62890625 C-50.47706328 71.5872852 -47.95705977 67.45736284 -45.4375 63.3125 C-44.95603516 62.52294922 -44.47457031 61.73339844 -43.97851562 60.91992188 C-42.06155302 57.77420469 -40.14937126 54.62744419 -38.2734375 51.45703125 C-37 49.375 -37 49.375 -35.1875 47.125 C-28.85428142 39.16323951 -23.62414183 30.25886067 -18.8125 21.3125 C-17 18.375 -17 18.375 -14 17.375 C-13.01 15.89 -13.01 15.89 -12 14.375 C-11.34 14.375 -10.68 14.375 -10 14.375 C-9.67 12.725 -9.34 11.075 -9 9.375 C-7.68 9.045 -6.36 8.715 -5 8.375 C-5.04125 7.42625 -5.0825 6.4775 -5.125 5.5 C-4.95558131 1.26453285 -4.18781715 0.52347714 0 0 Z " fill="#FEFDFE" transform="translate(936,534.625)"/>
<path d="M0 0 C4.11827801 0.25739238 7.50679852 1.17628445 11.375 2.5625 C16.88182139 4.32197596 22.13236919 4.20356386 27.84716797 3.97680664 C32.5860284 3.82655009 36.49868929 4.27308206 41 6 C44.64291139 11.46436708 43.77899656 19.5819759 43 26 C41.51737134 30.79048543 39.2699347 34.45251256 36.10546875 38.30859375 C33.6150586 41.49206795 31.60198128 44.8300431 29.5625 48.3125 C28.76886269 49.65402083 27.97459766 50.9951705 27.1796875 52.3359375 C26.80295898 52.97241211 26.42623047 53.60888672 26.03808594 54.26464844 C24.79239021 56.34705795 23.49757496 58.395085 22.1875 60.4375 C20.69112174 62.79706747 19.41018968 65.16546287 18.21875 67.69140625 C15.96630413 72.24177556 13.19239583 76.32846419 10.3125 80.5 C6.25604407 86.50104886 2.322074 92.54533546 -1.3125 98.8125 C-1.70332764 99.46347656 -2.09415527 100.11445312 -2.49682617 100.78515625 C-4.06795968 103.55693128 -5.00630412 105.55303799 -4.9609375 108.76953125 C-3.8063452 111.44949956 -2.74997224 112.30573215 -0.3125 113.875 C2.49475484 115.82420698 4.69473336 117.63123405 6.8125 120.3125 C10.0839808 124.36162787 14.03097226 127.40262173 18.12109375 130.59375 C20.35675393 132.46236149 22.32161713 134.31542122 24.33984375 136.3984375 C27.97328694 140.09077999 31.94570325 143.08227982 36.125 146.125 C42.54481049 150.89564623 48.32044183 155.94806643 53.80126953 161.77392578 C55.9835874 164.0784942 57.88674508 165.93674944 60.671875 167.4921875 C63.86545566 169.56051323 64.66251909 171.45692168 66 175 C66.56005091 177.75849038 66.86503001 180.51145081 67.125 183.3125 C67.198242 188.03934786 67.198242 188.03934786 69 192 C69.46206822 198.16760621 68.53443102 202.0206405 65.6875 207.4375 C65.03378509 208.74541645 64.38401253 210.05531108 63.73828125 211.3671875 C63.43100098 211.99077148 63.1237207 212.61435547 62.80712891 213.25683594 C61.50485249 216.06937485 60.64712118 218.97178477 59.8984375 221.97265625 C59 224 59 224 56.609375 226.7421875 C53.6304857 230.1801559 52.30300693 233.79044575 50.875 238.0625 C49.27457295 242.72104035 47.62964321 246.80128792 45 251 C44.19846288 252.99271033 43.52151889 254.99781525 42.84375 257.03515625 C42 259 42 259 40.57104492 260.79492188 C38.83869658 263.22640132 37.9812553 265.424321 37.01953125 268.24609375 C36.4790918 269.74946289 36.4790918 269.74946289 35.92773438 271.28320312 C35.18762066 273.3765195 34.46347166 275.47555286 33.75585938 277.58007812 C31.5377226 283.64974238 29.72615032 287.14540078 23.87963867 290.13745117 C23.25935791 290.42209229 22.63907715 290.7067334 22 291 C21.21109375 291.47308594 20.4221875 291.94617188 19.609375 292.43359375 C18.99578125 292.76488281 18.3821875 293.09617187 17.75 293.4375 C17.12609375 293.78683594 16.5021875 294.13617187 15.859375 294.49609375 C13.28393829 295.19405874 12.28143232 294.2708946 10 293 C7.9724757 292.66241787 7.9724757 292.66241787 5.9375 292.5625 C1.70038311 291.95719759 1.71324843 291.71324843 -1 289 C-4.62535976 288.7496423 -4.62535976 288.7496423 -8 289 C-8.495 287.515 -8.495 287.515 -9 286 C-9.763125 285.71125 -10.52625 285.4225 -11.3125 285.125 C-14.7944729 283.66742995 -16.11438189 282.26356981 -18 279 C-17.66322548 273.71797862 -16.10640808 269.33902835 -13.90234375 264.58984375 C-13.58979141 263.90048233 -13.27723907 263.21112091 -12.95521545 262.50086975 C-12.29294922 261.0458671 -11.62623487 259.59288173 -10.95532227 258.1418457 C-9.95380055 255.97280287 -8.96901612 253.79676931 -7.98632812 251.61914062 C-4.31244381 243.55312633 -0.29346211 235.84193431 4.17700195 228.19116211 C6.7549645 223.67843297 8.97317162 219.06764984 11.0625 214.3125 C11.46404297 213.46623047 11.86558594 212.61996094 12.27929688 211.74804688 C14.97899548 205.60728165 16.18493746 199.54197238 14 193 C12.13077807 191.7741944 12.13077807 191.7741944 10 191 C8.03214841 189.30483642 6.13299206 187.59651427 4.25 185.8125 C3.25618406 184.88046891 2.26137297 183.94949794 1.265625 183.01953125 C0.48481567 182.28911621 0.48481567 182.28911621 -0.31176758 181.54394531 C-2.13375582 179.87767581 -3.99867869 178.26948194 -5.87109375 176.66015625 C-10.2395309 172.85846059 -14.26636333 168.76376076 -18.3125 164.625 C-25.14657673 157.70815376 -32.13463394 151.43832855 -39.89453125 145.56640625 C-43.44611791 142.79253929 -45.323979 140.19005249 -47 136 C-47 135.34 -47 134.68 -47 134 C-47.61230469 133.75121094 -48.22460938 133.50242187 -48.85546875 133.24609375 C-51.37367001 131.78287662 -52.00080904 130.62387471 -53.3125 128.0625 C-55.89473277 123.61398061 -58.22554994 122.65269425 -63 121 C-64.57499749 117.85000502 -63.70833498 115.36459118 -63 112 C-62.01190248 110.98823753 -61.01062838 109.98925744 -60 109 C-58.80582783 106.88496613 -58.80582783 106.88496613 -57.7578125 104.484375 C-57.33781982 103.57381348 -56.91782715 102.66325195 -56.48510742 101.72509766 C-56.03627197 100.74331543 -55.58743652 99.7615332 -55.125 98.75 C-51.12256258 90.18724674 -46.85122727 81.84685859 -42.1875 73.625 C-41.6610791 72.69397461 -41.1346582 71.76294922 -40.59228516 70.80371094 C-37.67387834 65.71374456 -34.60090427 60.78931809 -31.26586914 55.96142578 C-30.06633713 54.10278736 -29.13531563 52.27349758 -28.25 50.25 C-26.36629142 46.259092 -23.7244263 42.94143218 -21 39.5 C-14.94591035 31.78924269 -11.88886985 24.80566495 -8.93115234 15.51733398 C-6.96851385 9.52894469 -4.50160347 4.50160347 0 0 Z " fill="#FDFDFE" transform="translate(318,535)"/>
<path d="M0 0 C1.14618307 1.47366395 2.28629611 2.95392051 3.35546875 4.484375 C6.33308987 7.22859589 10.34608738 7.42646708 14.2109375 8.23046875 C17.91433326 9.25227402 19.45112397 11.18282123 22 14 C23.66463578 14.85837067 25.35543 15.66696478 27.0625 16.4375 C32.48826945 19.06183359 34.74145074 21.52258664 36.82421875 27.27734375 C39.02561064 34.76207616 39.61456116 42.37552783 40.2265625 50.11523438 C40.69518679 55.97694316 41.36085752 61.76208541 42.20800781 67.58056641 C51.3365647 131.49115379 51.3365647 131.49115379 40.98681641 149.79150391 C39.55880662 152.98739122 39.6876402 155.86745027 39.62109375 159.35546875 C39.60409927 160.05771072 39.5871048 160.7599527 39.56959534 161.48347473 C39.51662218 163.71805944 39.47621889 165.95262642 39.4375 168.1875 C39.39359301 170.43299443 39.346962 172.67834453 39.29469299 174.92366028 C39.24815401 176.95312515 39.21065939 178.98279136 39.17358398 181.01245117 C39 184 39 184 38 185 C30.12714435 186.31214261 22.15892642 186.07225387 14.2109375 185.9609375 C8.07214103 185.90906035 2.09471577 186.25964407 -4 187 C-4.13277344 186.08476563 -4.26554688 185.16953125 -4.40234375 184.2265625 C-4.57894531 183.03804687 -4.75554688 181.84953125 -4.9375 180.625 C-5.11152344 179.44164062 -5.28554688 178.25828125 -5.46484375 177.0390625 C-5.83462786 174.09297619 -5.83462786 174.09297619 -7 172 C-7.09895857 169.49055993 -7.13983012 167.00958525 -7.1328125 164.5 C-7.13376923 163.74968506 -7.13472595 162.99937012 -7.13571167 162.22631836 C-7.13639318 160.63248613 -7.1345409 159.03865114 -7.13037109 157.44482422 C-7.1250821 155.03736889 -7.13028569 152.63010529 -7.13671875 150.22265625 C-7.14039843 137.35446561 -7.14039843 137.35446561 -6.4296875 130.9375 C-6.28789063 129.638125 -6.14609375 128.33875 -6 127 C-6.33 126.67 -6.66 126.34 -7 126 C-7.23529412 120.47058824 -7.23529412 120.47058824 -6 118 C-5.90336923 116.36292883 -5.86924383 114.72195055 -5.8671875 113.08203125 C-5.86404541 111.58071655 -5.86404541 111.58071655 -5.86083984 110.04907227 C-5.8655127 108.98100342 -5.87018555 107.91293457 -5.875 106.8125 C-5.87838379 105.73218506 -5.88176758 104.65187012 -5.88525391 103.53881836 C-5.81347134 91.22739919 -5.81347134 91.22739919 -7 79 C-7.66 78.67 -8.32 78.34 -9 78 C-9.01458252 77.2879541 -9.02916504 76.5759082 -9.04418945 75.84228516 C-9.34421486 62.58391858 -9.8880947 49.47540395 -11.5625 36.3125 C-14.98709787 8.59283829 -14.98709787 8.59283829 -10.4375 2.4375 C-7.08094681 -0.50740044 -4.4011758 -1.04027792 0 0 Z " fill="#FDFCFE" transform="translate(778,635)"/>
<path d="M0 0 C4.1115561 3.8080184 6.97835887 8.70097132 9.3125 13.75 C13.56328881 22.73937306 20.55956235 30.27771609 26.875 37.875 C29.29600607 40.79807762 31.49388743 43.60455634 33.3125 46.9375 C34.7984362 49.97841129 34.7984362 49.97841129 36.890625 51.86328125 C39.94067174 54.95286563 41.98145055 58.51149411 44.25390625 62.19140625 C45.30913769 63.8887472 46.39272943 65.5695079 47.52734375 67.21484375 C50.4594199 71.50672333 52.87380232 75.65190867 52 81 C50.79864214 83.1417466 49.38714844 84.88334645 47.80078125 86.7578125 C45.79290705 89.25785543 44.26728309 91.83540645 42.6875 94.625 C40.16017551 99.05890261 37.49268206 103.36351585 34.6875 107.625 C31.14288569 113.02102874 28.00314719 118.57000273 24.9375 124.25 C21.69427072 130.23682764 18.27591257 135.55310201 13.828125 140.7421875 C10.75500237 144.53762528 8.38685886 148.75066794 6 153 C4.21875 152.83203125 4.21875 152.83203125 2 152 C0.28125 149.76171875 0.28125 149.76171875 -1.5 146.6875 C-1.83330322 146.12498535 -2.16660645 145.5624707 -2.51000977 144.98291016 C-3.68574637 142.99563819 -4.84327299 140.99839395 -6 139 C-14.62189501 124.05832969 -14.62189501 124.05832969 -25.00390625 110.33203125 C-30.99678906 103.33056151 -35.78259464 95.32712843 -40.8125 87.625 C-41.38838867 86.74400635 -41.96427734 85.8630127 -42.55761719 84.95532227 C-43.10192383 84.11670654 -43.64623047 83.27809082 -44.20703125 82.4140625 C-44.6966333 81.6607666 -45.18623535 80.9074707 -45.69067383 80.13134766 C-49.0568556 74.65180881 -49.0568556 74.65180881 -48.78125 71.4921875 C-47.98139859 68.94066151 -47.06038531 67.28353302 -45.5 65.125 C-42.7131064 61.11426769 -40.17224285 57.0131158 -37.6875 52.8125 C-34.34931749 47.18588235 -30.87569509 41.67111692 -27.29882812 36.19384766 C-24.76179584 32.27507812 -22.44632292 28.2757828 -20.1875 24.1875 C-16.96157916 18.48209876 -13.46494347 13.02481704 -9.75 7.625 C-9.24235107 6.86856201 -8.73470215 6.11212402 -8.21166992 5.33276367 C-7.7241626 4.63771729 -7.23665527 3.9426709 -6.734375 3.2265625 C-6.30350586 2.60346191 -5.87263672 1.98036133 -5.42871094 1.33837891 C-4 0 -4 0 0 0 Z " fill="#570595" transform="translate(943,606)"/>
<path d="M0 0 C5.6498334 2.44826114 8.40113691 8.45866761 10.9296875 13.73828125 C14.28990545 20.72718818 18.68643938 26.17780681 23.70703125 32.02734375 C24.67759259 33.15971996 25.64763755 34.29253895 26.6171875 35.42578125 C27.09929687 35.98885986 27.58140625 36.55193848 28.078125 37.13208008 C30.98026185 40.55826969 33.51105214 43.97586584 35.76171875 47.8515625 C37.32342033 50.40482063 39.08622113 52.77062857 40.8671875 55.17578125 C53.49777933 72.44715872 53.49777933 72.44715872 53.9921875 79.86328125 C52.73921238 82.5989436 51.21061139 84.82335124 48.9921875 86.86328125 C48.3321875 86.86328125 47.6721875 86.86328125 46.9921875 86.86328125 C46.75757813 87.87261719 46.52296875 88.88195312 46.28125 89.921875 C45.06359678 94.16873381 42.90932807 97.3564746 40.3671875 100.92578125 C36.97797331 105.83873323 33.77917476 110.77731814 30.8671875 115.98828125 C25.829636 124.96649804 20.74194559 133.90051283 14.36328125 142.0078125 C12.40666534 144.65565454 10.83373477 147.50298133 9.265625 150.39453125 C8.84539062 150.87921875 8.42515625 151.36390625 7.9921875 151.86328125 C6.6721875 151.86328125 5.3521875 151.86328125 3.9921875 151.86328125 C2.30102539 150.06689453 2.30102539 150.06689453 0.65234375 147.55859375 C0.04793457 146.64368164 -0.55647461 145.72876953 -1.17919922 144.78613281 C-4.65385761 139.23224626 -7.93902318 133.57887368 -11.20117188 127.8984375 C-14.48050852 122.25529501 -17.94936279 116.97497664 -22.0078125 111.86328125 C-22.77222656 110.8990625 -23.53664063 109.93484375 -24.32421875 108.94140625 C-25.06542969 108.008125 -25.80664062 107.07484375 -26.5703125 106.11328125 C-32.82873182 98.10054301 -38.30333903 89.53003929 -43.69482422 80.91796875 C-44.73814261 79.28528604 -45.86212653 77.70421193 -47.01171875 76.14453125 C-48.0078125 73.86328125 -48.0078125 73.86328125 -47.4453125 70.94921875 C-45.87315641 67.57420975 -44.07022682 64.5892685 -42.0078125 61.48828125 C-41.19560518 60.25326741 -40.38444766 59.01756268 -39.57421875 57.78125 C-38.94217529 56.820979 -38.94217529 56.820979 -38.29736328 55.84130859 C-36.13414526 52.52317296 -34.03925738 49.16291274 -31.9453125 45.80078125 C-31.52660889 45.12901855 -31.10790527 44.45725586 -30.67651367 43.76513672 C-29.45220883 41.79872066 -28.22974741 39.83117066 -27.0078125 37.86328125 C-26.64268555 37.27627441 -26.27755859 36.68926758 -25.90136719 36.08447266 C-22.32520373 30.33058086 -18.81465099 24.55340506 -15.4453125 18.67578125 C-4.4458296 -0.30273159 -4.4458296 -0.30273159 0 0 Z " fill="#570595" transform="translate(489.0078125,606.13671875)"/>
<path d="M0 0 C2.16015625 1.890625 2.16015625 1.890625 4.0625 4.25 C5.08923828 5.47589844 5.08923828 5.47589844 6.13671875 6.7265625 C7.05904297 7.85191406 7.05904297 7.85191406 8 9 C11.14998996 12.48156785 14.32117938 14.85966442 18.25 17.375 C21.60888523 19.70658 22.83502291 20.6370504 24.5625 24.4375 C23.22572406 32.90374759 13.39465453 39.82169479 7.51196289 45.72827148 C6.06122327 47.18878533 4.62152727 48.65965489 3.18164062 50.13085938 C-8.95998204 62.41354578 -8.95998204 62.41354578 -16.875 63.5625 C-21.13712505 63.29454715 -24.75530934 61.63551508 -28.62890625 59.9375 C-31.12502241 58.83655381 -31.12502241 58.83655381 -34.5 58.5625 C-40.31874544 57.62734448 -45.79926456 55.47040981 -49.78515625 50.99609375 C-51.10075508 49.00620471 -52.22134842 47.25573002 -53 45 C-51.97708805 41.93126414 -50.90103728 40.80103413 -48.62744141 38.62207031 C-46.64895634 36.6501149 -44.81373026 34.57494353 -42.9609375 32.484375 C-37.99276229 26.94715991 -32.85594667 21.60114093 -27.625 16.3125 C-26.75617187 15.41466797 -25.88734375 14.51683594 -24.9921875 13.59179688 C-9.01128437 -2.54276878 -9.01128437 -2.54276878 0 0 Z " fill="#FDFCFE" transform="translate(804,540)"/>
</svg>
